HIERARCHY
ROOT SpineBase
{
  OFFSET 0.000000 0.000000 0.000000
  CHANNELS 6 Xposition Yposition Zposition Zrotation Xrotation Yrotation
  JOINT SpineMid
  {
    OFFSET 0.000000 28.469264 0.000000
    CHANNELS 3 Zrotation Xrotation Yrotation
    JOINT SpineShoulder
    {
      OFFSET -0.105039 21.173807 -0.642737
      CHANNELS 3 Zrotation Xrotation Yrotation
      JOINT Neck
      {
        OFFSET -0.051357 7.010437 -0.527074
        CHANNELS 3 Zrotation Xrotation Yrotation
        JOINT Head
        {
          OFFSET -3.208912 12.797677 0.109318
          CHANNELS 3 Zrotation Xrotation Yrotation
          End Site
          {
            OFFSET 0 0 0
          }
        }
      }
      JOINT ShoulderLeft
      {
        OFFSET -13.695608 -3.780776 7.427485
        CHANNELS 3 Zrotation Xrotation Yrotation
        JOINT ElbowLeft
        {
          OFFSET -0.480018 -26.002944 3.001814
          CHANNELS 3 Zrotation Xrotation Yrotation
          JOINT WristLeft
          {
            OFFSET 0.258851 -23.859262 -2.811559
            CHANNELS 3 Zrotation Xrotation Yrotation
            JOINT HandLeft
            {
              OFFSET -0.016303 -3.691548 -1.202474
              CHANNELS 3 Zrotation Xrotation Yrotation
              JOINT HandTipLeft
              {
                OFFSET 0.765158 -6.037136 -0.484306
                CHANNELS 3 Zrotation Xrotation Yrotation
                End Site
                {
                  OFFSET 0 0 0
                }
              }
              JOINT ThumbLeft
              {
                OFFSET -2.280703 1.056721 -0.257372
                CHANNELS 3 Zrotation Xrotation Yrotation
                End Site
                {
                  OFFSET 0 0 0
                }
              }
            }
          }
        }
      }
      JOINT ShoulderRight
      {
        OFFSET 10.246424 -3.537749 -11.404021
        CHANNELS 3 Zrotation Xrotation Yrotation
        JOINT ElbowRight
        {
          OFFSET 6.113549 -23.354049 -2.351457
          CHANNELS 3 Zrotation Xrotation Yrotation
          JOINT WristRight
          {
            OFFSET -0.928087 -19.045644 -4.733695
            CHANNELS 3 Zrotation Xrotation Yrotation
            JOINT HandRight
            {
              OFFSET -1.278897 -6.602855 -0.839903
              CHANNELS 3 Zrotation Xrotation Yrotation
              JOINT HandTipRight
              {
                OFFSET -0.531080 -5.780840 -0.713851
                CHANNELS 3 Zrotation Xrotation Yrotation
                End Site
                {
                  OFFSET 0 0 0
                }
              }
              JOINT ThumbRight
              {
                OFFSET 2.709053 -0.534628 -1.358289
                CHANNELS 3 Zrotation Xrotation Yrotation
                End Site
                {
                  OFFSET 0 0 0
                }
              }
            }
          }
        }
      }
    }
  }
  JOINT HipLeft
  {
    OFFSET -5.347076 0.169152 0.203404
    CHANNELS 3 Zrotation Xrotation Yrotation
    JOINT KneeLeft
    {
      OFFSET 4.712295 -28.374461 7.150837
      CHANNELS 3 Zrotation Xrotation Yrotation
      JOINT AnkleLeft
      {
        OFFSET 7.181142 -32.148166 7.544713
        CHANNELS 3 Zrotation Xrotation Yrotation
        JOINT FootLeft
        {
          OFFSET -4.763643 -3.419269 -9.077430
          CHANNELS 3 Zrotation Xrotation Yrotation
          End Site
          {
            OFFSET 0 0 0
          }
        }
      }
    }
  }
  JOINT HipRight
  {
    OFFSET 4.820636 1.319837 -6.541171
    CHANNELS 3 Zrotation Xrotation Yrotation
    JOINT KneeRight
    {
      OFFSET 10.112622 -28.775101 1.567581
      CHANNELS 3 Zrotation Xrotation Yrotation
      JOINT AnkleRight
      {
        OFFSET 5.009771 -33.112353 9.969072
        CHANNELS 3 Zrotation Xrotation Yrotation
        JOINT FootRight
        {
          OFFSET -5.878340 -3.293068 -7.030059
          CHANNELS 3 Zrotation Xrotation Yrotation
          End Site
          {
            OFFSET 0 0 0
          }
        }
      }
    }
  }
}
MOTION
Frames: 9
Frame Time: 0.033333
24.006243 73.535138 340.091544 -0.000000 0.000000 33.557610 0.000000 0.000000 -33.557610 -0.000000 0.000000 0.000000 -0.000000 0.000000 0.000000 0.000000 0.000000 0.000000 -0.000000 0.000000 0.000000 -0.000000 0.000000 0.000000 -0.000000 0.000000 0.000000 -0.000000 0.000000 0.000000 0.000000 0.000000 0.000000 0.000000 0.000000 0.000000 -0.000000 0.000000 0.000000 -0.000000 0.000000 0.000000 -0.000000 0.000000 0.000000 -0.000000 0.000000 0.000000 0.000000 0.000000 0.000000 0.000000 0.000000 0.000000 0.000000 0.000000 -33.557610 -0.000000 0.000000 0.000000 -0.000000 0.000000 0.000000 0.000000 0.000000 0.000000 0.000000 0.000000 -33.557610 -0.000000 0.000000 0.000000 -0.000000 0.000000 0.000000 0.000000 0.000000 0.000000
24.020702 73.543779 340.006308 0.043377 0.106901 33.589825 -0.095276 -0.065052 -33.589919 -0.000000 0.000000 0.000000 -0.000000 0.000000 0.000000 0.000000 0.000000 0.000000 -0.000000 0.000000 0.000000 -0.000000 0.000000 0.000000 -0.000000 0.000000 0.000000 2.695561 0.696158 -0.143927 0.000000 0.000000 0.000000 0.000000 0.000000 0.000000 -0.000000 0.000000 0.000000 -0.000000 0.000000 0.000000 -0.000000 0.000000 0.000000 0.025775 -2.871858 0.262170 0.000000 0.000000 0.000000 0.000000 0.000000 0.000000 -0.095276 -0.065052 -33.589919 -0.000000 0.000000 0.000000 0.695496 -1.131553 -0.272492 0.000000 0.000000 0.000000 -0.095276 -0.065052 -33.589919 -0.000000 0.000000 0.000000 1.855291 -0.531638 -3.123895 0.000000 0.000000 0.000000
24.032770 73.554395 339.921011 0.077931 0.216874 33.617239 -0.184969 -0.137456 -33.617608 -0.000000 0.000000 0.000000 -0.000000 0.000000 0.000000 0.000000 0.000000 0.000000 -0.000000 0.000000 0.000000 -0.000000 0.000000 0.000000 1.135594 -0.560325 -0.362482 3.352324 1.727674 0.069966 0.000000 0.000000 0.000000 0.000000 0.000000 0.000000 0.207171 0.800790 0.187104 -0.209805 -0.800104 -0.190017 0.259928 -1.002431 0.163628 -0.230361 -4.000938 0.299065 0.000000 0.000000 0.000000 0.000000 0.000000 0.000000 -0.956877 -0.499178 -33.854199 0.439575 0.730376 0.229500 1.194439 -1.932365 -0.487472 0.000000 0.000000 0.000000 -0.184969 -0.137456 -33.617608 -0.000000 0.000000 0.000000 3.354052 -1.051977 -5.655758 0.000000 0.000000 0.000000
24.042448 73.566984 339.835654 0.103654 0.329927 33.640010 -0.269068 -0.217253 -33.640819 -0.000000 0.000000 0.000000 -0.000000 0.000000 0.000000 0.000000 0.000000 0.000000 -0.000000 0.000000 0.000000 -0.000000 0.000000 0.000000 1.588960 -1.038304 -0.500136 3.838782 2.437616 0.102893 0.000000 0.000000 0.000000 0.000000 0.000000 0.000000 0.268003 1.063720 0.248608 -0.272662 -1.062535 -0.253624 0.301078 -1.524363 0.261552 -0.283279 -4.971250 0.343490 0.000000 0.000000 0.000000 0.000000 0.000000 0.000000 -1.303286 -0.732292 -33.960397 1.143896 1.653835 0.572453 0.887842 -3.015966 -0.913104 0.000000 0.000000 0.000000 -1.069406 -0.738884 -33.976736 0.172918 1.705454 0.397563 4.709111 -2.347596 -7.615103 0.000000 0.000000 0.000000
24.049736 73.581548 339.750237 0.120534 0.446068 33.658270 -0.347559 -0.304481 -33.659663 -0.000000 0.000000 0.000000 -0.807496 -0.457304 -0.111191 0.000000 0.000000 0.000000 -0.000000 0.000000 0.000000 -0.000000 0.000000 0.000000 1.942349 -1.631032 -0.600726 3.601137 3.035517 0.159108 0.000000 0.000000 0.000000 0.000000 0.000000 0.000000 0.300178 1.232763 0.288756 -0.306457 -1.231217 -0.295278 0.286437 -2.065472 0.369855 -0.299805 -5.355474 0.325360 0.000000 0.000000 0.000000 0.000000 0.000000 0.000000 -1.561035 -0.955069 -34.037643 1.315025 1.946981 0.660175 0.844454 -3.140373 -1.055858 0.000000 0.000000 0.000000 -1.503411 -1.011456 -34.136498 0.410958 2.335143 0.587159 5.498627 -3.010081 -9.047777 0.000000 0.000000 0.000000
24.054634 73.598086 339.664760 0.128559 0.565302 33.672125 -0.420423 -0.399174 -33.674224 -0.000000 0.000000 0.000000 -0.958343 -0.539955 -0.132002 0.000000 0.000000 0.000000 -0.000000 0.000000 0.000000 -0.000000 0.000000 0.000000 2.186222 -2.315924 -0.662204 2.664921 3.500999 0.260188 0.000000 0.000000 0.000000 0.000000 0.000000 0.000000 0.303652 1.306923 0.307533 -0.310742 -1.305256 -0.314536 0.217287 -2.629994 0.488440 -0.280451 -5.196532 0.248042 0.000000 0.000000 0.000000 0.000000 0.000000 0.000000 -1.729773 -1.167845 -34.085282 1.381279 2.108596 0.698923 0.625788 -2.802589 -1.118615 0.000000 0.000000 0.000000 -1.975666 -1.296592 -34.307217 0.739329 2.992723 0.801750 5.929957 -3.569542 -9.975328 0.000000 0.000000 0.000000
24.071983 73.620171 339.530154 0.148664 0.757727 33.634853 -0.543498 -0.548515 -33.638438 -0.000000 0.000000 0.000000 -1.114792 -0.594648 -0.145729 0.000000 0.000000 0.000000 -0.399258 -0.829299 -0.033641 0.398813 0.829514 0.027865 2.304041 -3.395753 -0.673864 1.534331 5.508572 0.464233 0.000000 0.000000 0.000000 0.000000 0.000000 0.000000 0.265042 1.299770 0.310029 -0.272141 -1.298303 -0.316119 0.076628 -3.403647 0.654522 -0.031610 -4.318212 0.053706 0.000000 0.000000 0.000000 0.000000 0.000000 0.000000 -1.726515 -1.437954 -34.013890 0.483285 1.398809 0.349044 0.496970 -0.443976 -0.710485 0.000000 0.000000 0.000000 -2.935181 -1.940394 -34.632248 1.349528 4.598931 1.285569 6.560237 -5.672290 -9.707450 0.000000 0.000000 0.000000
24.081347 73.643891 339.417977 0.149619 0.945587 33.642489 -0.648460 -0.704301 -33.647709 -0.000000 0.000000 0.000000 -1.276567 -0.770646 -0.191462 0.000000 0.000000 0.000000 -0.398666 -0.799609 -0.034014 -0.493019 1.036584 0.150288 2.842625 -4.363956 -0.653802 -0.247241 5.753205 0.612455 0.000000 0.000000 0.000000 0.000000 0.000000 0.000000 0.176501 1.076347 0.261988 -0.181453 -1.075523 -0.265349 -0.163824 -4.474900 0.885755 0.052563 -2.970163 -0.200564 0.000000 0.000000 0.000000 0.000000 0.000000 0.000000 -1.829421 -1.725822 -34.026686 0.407368 1.507182 0.348574 -1.901289 3.414511 0.314114 0.000000 0.000000 0.000000 -3.434407 -2.171435 -34.775095 1.907627 4.907105 1.460080 7.572159 -7.784082 -9.054092 0.000000 0.000000 0.000000
24.076138 73.664736 339.345265 0.125353 1.068497 33.661909 -0.696645 -0.819827 -33.668062 -0.000000 0.000000 0.000000 -1.306892 -0.749524 -0.185866 0.000000 0.000000 0.000000 -0.373511 -0.738841 -0.031862 -0.630541 0.959870 0.162560 2.802576 -6.170476 -0.590039 -3.732793 6.539939 1.100163 0.000000 0.000000 0.000000 0.000000 0.000000 0.000000 -0.000000 0.000000 0.000000 -0.000000 0.000000 0.000000 -0.535391 -4.273703 0.879640 0.715822 -2.088588 -0.362895 0.000000 0.000000 0.000000 0.000000 0.000000 0.000000 -1.807049 -1.906002 -34.026884 0.312667 1.521283 0.328257 -1.725814 3.619673 -0.369243 0.000000 0.000000 0.000000 -3.364443 -1.966795 -34.678184 2.290580 4.161980 1.359072 8.052413 -9.578958 -6.313171 0.000000 0.000000 0.000000
